<mxfile host="app.diagrams.net" modified="2024-01-11T09:08:55.740Z" agent="Mozilla/5.0 (Windows NT 10.0; Win64; x64) AppleWebKit/537.36 (KHTML, like Gecko) Chrome/120.0.0.0 Safari/537.36 Edg/120.0.0.0" etag="vmsrSYUrFpar6ZTkMVvI" version="22.1.17" type="github">
  <diagram name="Page-1" id="ENbU-KCcfbX1HI0WQG8M">
    <mxGraphModel dx="1979" dy="1145" grid="1" gridSize="10" guides="1" tooltips="1" connect="1" arrows="1" fold="1" page="0" pageScale="1" pageWidth="1169" pageHeight="827" math="0" shadow="0">
      <root>
        <mxCell id="0" />
        <mxCell id="1" parent="0" />
        <mxCell id="15Um-tMKAFCWQq1WCllw-1" value="&lt;font style=&quot;font-size: 14px;&quot;&gt;First Article inspection&lt;/font&gt;" style="swimlane;childLayout=stackLayout;resizeParent=1;resizeParentMax=0;horizontal=1;startSize=20;horizontalStack=0;html=1;" vertex="1" parent="1">
          <mxGeometry x="60" y="100" width="2290" height="620" as="geometry" />
        </mxCell>
        <mxCell id="15Um-tMKAFCWQq1WCllw-2" value="&lt;font style=&quot;font-size: 14px;&quot;&gt;Production&lt;/font&gt;" style="swimlane;startSize=20;horizontal=0;html=1;" vertex="1" parent="15Um-tMKAFCWQq1WCllw-1">
          <mxGeometry y="20" width="2290" height="200" as="geometry" />
        </mxCell>
        <mxCell id="15Um-tMKAFCWQq1WCllw-11" value="&lt;span style=&quot;font-size: 13px;&quot;&gt;Start sending panels for First Article Inspections&lt;/span&gt;" style="rounded=1;whiteSpace=wrap;html=1;" vertex="1" parent="15Um-tMKAFCWQq1WCllw-2">
          <mxGeometry x="460" y="40" width="120" height="120" as="geometry" />
        </mxCell>
        <mxCell id="15Um-tMKAFCWQq1WCllw-14" value="&lt;span style=&quot;font-size: 13px;&quot;&gt;Scan all FAI Panels&lt;br&gt;at Pre-AOI station&lt;br&gt;&lt;/span&gt;" style="rounded=1;whiteSpace=wrap;html=1;" vertex="1" parent="15Um-tMKAFCWQq1WCllw-2">
          <mxGeometry x="860" y="40" width="120" height="120" as="geometry" />
        </mxCell>
        <mxCell id="15Um-tMKAFCWQq1WCllw-22" value="&lt;span style=&quot;font-size: 13px;&quot;&gt;Start sending&lt;/span&gt;&lt;br&gt;&lt;span style=&quot;font-size: 13px;&quot;&gt;panels for mass&lt;/span&gt;&lt;br&gt;&lt;span style=&quot;font-size: 13px;&quot;&gt;production&lt;/span&gt;" style="rounded=1;whiteSpace=wrap;html=1;" vertex="1" parent="15Um-tMKAFCWQq1WCllw-2">
          <mxGeometry x="1660" y="40" width="120" height="120" as="geometry" />
        </mxCell>
        <mxCell id="15Um-tMKAFCWQq1WCllw-3" value="&lt;font style=&quot;font-size: 14px;&quot;&gt;MES IOT&lt;/font&gt;" style="swimlane;startSize=20;horizontal=0;html=1;" vertex="1" parent="15Um-tMKAFCWQq1WCllw-1">
          <mxGeometry y="220" width="2290" height="200" as="geometry" />
        </mxCell>
        <mxCell id="15Um-tMKAFCWQq1WCllw-7" value="&lt;span style=&quot;font-size: 13px;&quot;&gt;Set log folder&lt;br&gt;to &quot;FAI&quot; folder&lt;/span&gt;" style="rounded=1;whiteSpace=wrap;html=1;" vertex="1" parent="15Um-tMKAFCWQq1WCllw-3">
          <mxGeometry x="260" y="40" width="120" height="120" as="geometry" />
        </mxCell>
        <mxCell id="15Um-tMKAFCWQq1WCllw-9" value="&lt;span style=&quot;font-size: 13px;&quot;&gt;Collect log&amp;nbsp;&lt;/span&gt;and &lt;br&gt;put in &quot;FAI&quot; folder" style="rounded=1;whiteSpace=wrap;html=1;" vertex="1" parent="15Um-tMKAFCWQq1WCllw-3">
          <mxGeometry x="660" y="40" width="120" height="120" as="geometry" />
        </mxCell>
        <mxCell id="15Um-tMKAFCWQq1WCllw-16" value="&lt;span style=&quot;font-size: 13px;&quot;&gt;Record FAI &lt;br&gt;Panel IDs&lt;br&gt;&lt;/span&gt;" style="rounded=1;whiteSpace=wrap;html=1;" vertex="1" parent="15Um-tMKAFCWQq1WCllw-3">
          <mxGeometry x="1060" y="40" width="120" height="120" as="geometry" />
        </mxCell>
        <mxCell id="15Um-tMKAFCWQq1WCllw-18" value="&lt;span style=&quot;font-size: 13px;&quot;&gt;Set log folder&lt;br&gt;to &quot;Mass Production&quot;&lt;br&gt;folder&lt;br&gt;&lt;/span&gt;" style="rounded=1;whiteSpace=wrap;html=1;" vertex="1" parent="15Um-tMKAFCWQq1WCllw-3">
          <mxGeometry x="1460" y="40" width="120" height="120" as="geometry" />
        </mxCell>
        <mxCell id="15Um-tMKAFCWQq1WCllw-24" value="&lt;span style=&quot;font-size: 13px;&quot;&gt;Collect log&amp;nbsp;&lt;/span&gt;and &lt;br&gt;put in &quot;&quot; folder" style="rounded=1;whiteSpace=wrap;html=1;" vertex="1" parent="15Um-tMKAFCWQq1WCllw-3">
          <mxGeometry x="1860" y="40" width="120" height="120" as="geometry" />
        </mxCell>
        <mxCell id="15Um-tMKAFCWQq1WCllw-4" value="&lt;font style=&quot;font-size: 14px;&quot;&gt;GPS TC&lt;/font&gt;" style="swimlane;startSize=20;horizontal=0;html=1;" vertex="1" parent="15Um-tMKAFCWQq1WCllw-1">
          <mxGeometry y="420" width="2290" height="200" as="geometry" />
        </mxCell>
        <mxCell id="15Um-tMKAFCWQq1WCllw-6" value="&lt;font style=&quot;font-size: 13px;&quot;&gt;Click TC&lt;br&gt;&quot;Start FAI&quot;&lt;/font&gt;" style="rounded=1;whiteSpace=wrap;html=1;" vertex="1" parent="15Um-tMKAFCWQq1WCllw-4">
          <mxGeometry x="60" y="40" width="120" height="120" as="geometry" />
        </mxCell>
        <mxCell id="15Um-tMKAFCWQq1WCllw-19" value="&lt;span style=&quot;font-size: 13px;&quot;&gt;Click TC&lt;br&gt;&quot;Verify&quot;&lt;br&gt;(For mass production)&lt;br&gt;&lt;/span&gt;" style="rounded=1;whiteSpace=wrap;html=1;" vertex="1" parent="15Um-tMKAFCWQq1WCllw-4">
          <mxGeometry x="1260" y="40" width="120" height="120" as="geometry" />
        </mxCell>
        <mxCell id="15Um-tMKAFCWQq1WCllw-10" style="edgeStyle=orthogonalEdgeStyle;rounded=0;orthogonalLoop=1;jettySize=auto;html=1;exitX=1;exitY=0.5;exitDx=0;exitDy=0;entryX=0;entryY=0.5;entryDx=0;entryDy=0;" edge="1" parent="15Um-tMKAFCWQq1WCllw-1" source="15Um-tMKAFCWQq1WCllw-7" target="15Um-tMKAFCWQq1WCllw-11">
          <mxGeometry relative="1" as="geometry" />
        </mxCell>
        <mxCell id="15Um-tMKAFCWQq1WCllw-12" style="edgeStyle=orthogonalEdgeStyle;rounded=0;orthogonalLoop=1;jettySize=auto;html=1;exitX=1;exitY=0.5;exitDx=0;exitDy=0;entryX=0;entryY=0.5;entryDx=0;entryDy=0;" edge="1" parent="15Um-tMKAFCWQq1WCllw-1" source="15Um-tMKAFCWQq1WCllw-11" target="15Um-tMKAFCWQq1WCllw-9">
          <mxGeometry relative="1" as="geometry" />
        </mxCell>
        <mxCell id="15Um-tMKAFCWQq1WCllw-15" style="edgeStyle=orthogonalEdgeStyle;rounded=0;orthogonalLoop=1;jettySize=auto;html=1;exitX=1;exitY=0.5;exitDx=0;exitDy=0;entryX=0;entryY=0.5;entryDx=0;entryDy=0;" edge="1" parent="15Um-tMKAFCWQq1WCllw-1" source="15Um-tMKAFCWQq1WCllw-9" target="15Um-tMKAFCWQq1WCllw-14">
          <mxGeometry relative="1" as="geometry" />
        </mxCell>
        <mxCell id="15Um-tMKAFCWQq1WCllw-17" style="edgeStyle=orthogonalEdgeStyle;rounded=0;orthogonalLoop=1;jettySize=auto;html=1;exitX=1;exitY=0.5;exitDx=0;exitDy=0;entryX=0;entryY=0.5;entryDx=0;entryDy=0;" edge="1" parent="15Um-tMKAFCWQq1WCllw-1" source="15Um-tMKAFCWQq1WCllw-14" target="15Um-tMKAFCWQq1WCllw-16">
          <mxGeometry relative="1" as="geometry" />
        </mxCell>
        <mxCell id="15Um-tMKAFCWQq1WCllw-8" style="edgeStyle=orthogonalEdgeStyle;rounded=0;orthogonalLoop=1;jettySize=auto;html=1;exitX=1;exitY=0.5;exitDx=0;exitDy=0;entryX=0;entryY=0.5;entryDx=0;entryDy=0;" edge="1" parent="15Um-tMKAFCWQq1WCllw-1" source="15Um-tMKAFCWQq1WCllw-6" target="15Um-tMKAFCWQq1WCllw-7">
          <mxGeometry relative="1" as="geometry" />
        </mxCell>
        <mxCell id="15Um-tMKAFCWQq1WCllw-20" style="edgeStyle=orthogonalEdgeStyle;rounded=0;orthogonalLoop=1;jettySize=auto;html=1;exitX=1;exitY=0.5;exitDx=0;exitDy=0;entryX=0;entryY=0.5;entryDx=0;entryDy=0;" edge="1" parent="15Um-tMKAFCWQq1WCllw-1" source="15Um-tMKAFCWQq1WCllw-16" target="15Um-tMKAFCWQq1WCllw-19">
          <mxGeometry relative="1" as="geometry" />
        </mxCell>
        <mxCell id="15Um-tMKAFCWQq1WCllw-21" style="edgeStyle=orthogonalEdgeStyle;rounded=0;orthogonalLoop=1;jettySize=auto;html=1;exitX=1;exitY=0.5;exitDx=0;exitDy=0;entryX=0;entryY=0.5;entryDx=0;entryDy=0;" edge="1" parent="15Um-tMKAFCWQq1WCllw-1" source="15Um-tMKAFCWQq1WCllw-19" target="15Um-tMKAFCWQq1WCllw-18">
          <mxGeometry relative="1" as="geometry" />
        </mxCell>
        <mxCell id="15Um-tMKAFCWQq1WCllw-23" style="edgeStyle=orthogonalEdgeStyle;rounded=0;orthogonalLoop=1;jettySize=auto;html=1;exitX=1;exitY=0.5;exitDx=0;exitDy=0;entryX=0;entryY=0.5;entryDx=0;entryDy=0;" edge="1" parent="15Um-tMKAFCWQq1WCllw-1" source="15Um-tMKAFCWQq1WCllw-18" target="15Um-tMKAFCWQq1WCllw-22">
          <mxGeometry relative="1" as="geometry" />
        </mxCell>
        <mxCell id="15Um-tMKAFCWQq1WCllw-25" style="edgeStyle=orthogonalEdgeStyle;rounded=0;orthogonalLoop=1;jettySize=auto;html=1;exitX=1;exitY=0.5;exitDx=0;exitDy=0;entryX=0;entryY=0.5;entryDx=0;entryDy=0;" edge="1" parent="15Um-tMKAFCWQq1WCllw-1" source="15Um-tMKAFCWQq1WCllw-22" target="15Um-tMKAFCWQq1WCllw-24">
          <mxGeometry relative="1" as="geometry" />
        </mxCell>
        <mxCell id="15Um-tMKAFCWQq1WCllw-13" style="edgeStyle=orthogonalEdgeStyle;rounded=0;orthogonalLoop=1;jettySize=auto;html=1;exitX=0.5;exitY=1;exitDx=0;exitDy=0;entryX=0.5;entryY=0;entryDx=0;entryDy=0;" edge="1" parent="1" source="15Um-tMKAFCWQq1WCllw-5" target="15Um-tMKAFCWQq1WCllw-6">
          <mxGeometry relative="1" as="geometry" />
        </mxCell>
        <mxCell id="15Um-tMKAFCWQq1WCllw-5" value="&lt;font style=&quot;font-size: 13px;&quot;&gt;Start&lt;/font&gt;" style="ellipse;whiteSpace=wrap;html=1;aspect=fixed;" vertex="1" parent="1">
          <mxGeometry x="140" width="80" height="80" as="geometry" />
        </mxCell>
      </root>
    </mxGraphModel>
  </diagram>
</mxfile>
